<svg width="17" height="17" viewBox="0 0 17 17" fill="none" xmlns="http://www.w3.org/2000/svg">
<g clip-path="url(#clip0_251_10567)">
<path d="M12.75 7.08335L9.91667 4.25001M1.77081 15.2292L4.16807 14.9628C4.46096 14.9303 4.60741 14.914 4.74429 14.8697C4.86573 14.8304 4.9813 14.7748 5.08786 14.7046C5.20797 14.6254 5.31216 14.5212 5.52054 14.3128L14.875 4.95835C15.6574 4.17594 15.6574 2.90741 14.875 2.12501C14.0926 1.34261 12.8241 1.34261 12.0417 2.12501L2.6872 11.4795C2.47883 11.6878 2.37464 11.792 2.29543 11.9121C2.22516 12.0187 2.16962 12.1343 2.1303 12.2557C2.08599 12.3926 2.06972 12.539 2.03718 12.8319L1.77081 15.2292Z" stroke="black" stroke-width="2" stroke-linecap="round" stroke-linejoin="round"/>
</g>
<defs>
<clipPath id="clip0_251_10567">
<rect width="17" height="17" fill="white"/>
</clipPath>
</defs>
</svg>
